<?xml version="1.0" encoding="UTF-8" standalone="no"?>
<!DOCTYPE svg PUBLIC "-//W3C//DTD SVG 1.1//EN" "http://www.w3.org/Graphics/SVG/1.1/DTD/svg11.dtd">
<svg xmlns="http://www.w3.org/2000/svg" version="1.1" viewBox="0.00 0.00 448.00 285.00">
<path fill="#0b9627" d="
  M 0.94 0.00
  L 448.00 0.00
  L 448.00 284.13
  L 380.28 284.17
  Q 380.12 284.12 379.96 284.07
  L 1.26 284.08
  A 0.40 0.40 0.0 0 1 0.86 283.68
  L 0.94 0.00
  Z
  M 321.73 62.56
  L 415.11 13.15
  Q 415.81 12.78 415.02 12.78
  L 24.72 12.78
  Q 23.95 12.78 24.53 13.29
  L 80.33 62.65
  A 0.59 0.58 66.2 0 0 80.73 62.81
  L 320.73 62.81
  Q 321.26 62.81 321.73 62.56
  Z
  M 329.25 192.89
  A 0.35 0.35 0.0 0 0 329.40 193.17
  L 434.67 265.32
  A 0.35 0.35 0.0 0 0 435.22 265.04
  L 435.22 17.61
  A 0.35 0.35 0.0 0 0 434.71 17.30
  L 329.44 72.99
  A 0.35 0.35 0.0 0 0 329.25 73.30
  L 329.25 192.89
  Z
  M 13.45 259.83
  A 0.35 0.35 0.0 0 0 14.06 260.06
  L 71.63 194.07
  A 0.35 0.35 0.0 0 0 71.72 193.84
  L 71.72 72.33
  A 0.35 0.35 0.0 0 0 71.60 72.07
  L 14.03 21.13
  A 0.35 0.35 0.0 0 0 13.45 21.40
  L 13.45 259.83
  Z
  M 316.48 75.99
  A 0.36 0.36 0.0 0 0 316.12 75.63
  L 84.86 75.63
  A 0.36 0.36 0.0 0 0 84.50 75.99
  L 84.50 189.69
  A 0.36 0.36 0.0 0 0 84.86 190.05
  L 316.12 190.05
  A 0.36 0.36 0.0 0 0 316.48 189.69
  L 316.48 75.99
  Z
  M 419.87 271.46
  A 0.33 0.33 0.0 0 0 420.06 270.86
  L 320.95 202.94
  A 0.33 0.33 0.0 0 0 320.77 202.88
  L 81.13 202.88
  A 0.33 0.33 0.0 0 0 80.88 202.99
  L 21.62 270.91
  A 0.33 0.33 0.0 0 0 21.87 271.46
  L 419.87 271.46
  Z"
/>
</svg>
